<?xml version="1.0" encoding="UTF-8"?><svg id="Warstwa_2" xmlns="http://www.w3.org/2000/svg" viewBox="0 0 26.6663 34.5532"><defs><style>.cls-1{fill:#000;stroke-width:0px;}</style></defs><g id="Warstwa_1-2"><path class="cls-1" d="M22.0296,30.7032h-.0257c-.4571-1.0264-.9354-2.0423-1.4413-3.0476l3.3524-8.3089v9.8411c0,.3471-.6455.8592-1.0582.7428v.2095h3.8095c-.0275-.4021-.5185-.1079-.836-.5418-.709-.9693.0698-9.0263-.218-10.7766l.8402-.9545-2.5037.0339c-.3915.2413-2.7365,7.4327-3.3714,8.5819-.1333.2392.0127.3598-.4698.2709-1.473-2.8952-4.7047-10.6581-4.8804-11.3268l3.5005-9.8369.9524-1.2698-2.7492.3196,1.0772.4.1862,1.0603-3.3777,8.7999c-1.2465-3.8201-2.6053-7.6168-4.2412-11.2866h-.0011c-.0341-.066-.0728-.1343-.1092-.2003C9.375,1.4787,8.1824.3134,5.8608.0517c-.2481-.0273-1.254-.1821-1.2472.223,1.468-.1275,2.194.2822,3.0134,1.4248.2117.2936,1.0289,1.9141,1.0289,1.9141l1.0773,2.3132c.0571.5756-.2561,1.1386-.419,1.6762-.5291,1.7651-1.7185,5.2063-2.5227,6.7872-.1143.2222.1101.4-.4402.3005L2.9693,5.6728c-.2688-1.1428.8381-.7471,1.2635-1.3524H0l1.1577,1.4857c.6772,1.2656,3.8243,10.5882,4.3407,10.8993.237.1418.5651.1503.8296.0804l3.8264-9.9258c1.2486,3.2486,3.8709,10.4866,3.9788,10.7216,0,.0042.0021.0063.0021.0106.3175,1.4032.2412,9.5173.0466,11.1766-.0339.2984-.0931.7471-.3153.9545-.2836.2645-.7725.0423-.745.4148h2.5375c-.2201-.4677-.9397-.2434-1.0561-.9503v-10.2644l5.4814,11.7797h.0042c.7741,1.6574,1.6597,3.0196,3.6426,3.5775.795.2255,2.2525.5788,2.6849-.2418-2.3618.3998-3.6171-1.3669-4.3865-3.3358Z"/></g></svg>